<svg xmlns="http://www.w3.org/2000/svg" xmlns:svg="http://www.w3.org/2000/svg" id="svg2" width="100%" height="100%" version="1.1" viewBox="0 0 16 16"><metadata id="metadata14"/><style id="style4">.icon-canvas-transparent{opacity:0;fill:#f6f6f6}.icon-vs-out{fill:#f6f6f6}.icon-vs-fg{fill:#f0eff1}.icon-vs-action-purple{fill:#652d90}</style><path id="canvas" d="M16 16H0V0h16v16z" class="icon-canvas-transparent"/><path id="outline" d="M15 3.349v8.403L8.975 16H8.07L1 11.582V3.327L7.595 0h1.118L15 3.349z" class="icon-vs-out"/><path id="iconFg" d="M12.715 4.398L8.487 7.02 3.565 4.272l4.578-2.309 4.572 2.435zM3 5.102l5 2.792v5.705l-5-3.125V5.102zm6 8.434V7.878l4-2.48v5.317l-4 2.821z" class="icon-vs-fg"/><path id="iconBg" d="M8.156.837L2 3.942v7.085L8.517 15.1 14 11.233V3.95L8.156.837zm4.559 3.561L8.487 7.02 3.565 4.272l4.578-2.309 4.572 2.435zM3 5.102l5 2.792v5.705l-5-3.125V5.102zm6 8.434V7.878l4-2.48v5.317l-4 2.821z" class="icon-vs-action-purple" style="fill:#0088d2;fill-opacity:1"/></svg>