<svg xmlns="http://www.w3.org/2000/svg" xmlns:svg="http://www.w3.org/2000/svg" id="Layer_1" width="230" height="230" x="0" y="0" enable-background="new 0 0 230 230" version="1.1" viewBox="0 0 230 230" xml:space="preserve"><metadata id="metadata26"/><g id="background" display="none"><rect id="rect4" width="230" height="230" display="inline"/></g><g id="Layer_1_1_"><g id="layer1_2_" transform="translate(0,-1031.3622)"><g id="g3332_2_" transform="matrix(0.25837415,0,0,0.2583835,-11.223354,763.31613)" style="fill:none;stroke:#d7dae0;stroke-opacity:1;stroke-width:65.79486536;stroke-miterlimit:0;stroke-dasharray:none;stroke-linejoin:miter;stroke-linecap:round"><path id="path24_2_" stroke-miterlimit="10" d="m 488.5212,1149.7881 0,-0.1079 m -443.5829,-110.784 221.7874,0 221.7955,110.7839" style="fill:none;stroke:#d7dae0;stroke-width:65.79486536;stroke-linecap:round;stroke-linejoin:miter;stroke-miterlimit:0;stroke-opacity:1;stroke-dasharray:none"/><path id="path26_2_" stroke-miterlimit="10" d="m 488.5212,1149.7881 0,-0.1079 m 443.5992,-110.7839 -221.8119,0 -221.7874,110.7839" style="fill:none;stroke:#d7dae0;stroke-width:65.79486536;stroke-linecap:round;stroke-linejoin:miter;stroke-miterlimit:0;stroke-opacity:1;stroke-dasharray:none"/><path id="path28_2_" stroke-miterlimit="10" d="m 932.1204,1926.0459 0,0 -221.8119,0 -221.7874,-111.0077" style="fill:none;stroke:#d7dae0;stroke-width:65.79486536;stroke-linecap:round;stroke-linejoin:miter;stroke-miterlimit:0;stroke-opacity:1;stroke-dasharray:none"/><path id="path30_2_" stroke-miterlimit="10" d="m 44.9383,1926.0459 0,0 221.7874,0 221.7955,-111.0077" style="fill:none;stroke:#d7dae0;stroke-width:65.79486536;stroke-linecap:round;stroke-linejoin:miter;stroke-miterlimit:0;stroke-opacity:1;stroke-dasharray:none"/><path id="path32_2_" stroke-miterlimit="10" d="m 155.832,1482.469 0,-0.126 m -110.8937,443.7029 0,-221.7671 110.8937,-221.9358" style="fill:none;stroke:#d7dae0;stroke-width:65.79486536;stroke-linecap:round;stroke-linejoin:miter;stroke-miterlimit:0;stroke-opacity:1;stroke-dasharray:none"/><path id="path34_2_" stroke-miterlimit="10" d="m 155.832,1482.469 0,-0.126 m -110.8937,-443.4468 0,221.7854 110.8937,221.6614" style="fill:none;stroke:#d7dae0;stroke-width:65.79486536;stroke-linecap:round;stroke-linejoin:miter;stroke-miterlimit:0;stroke-opacity:1;stroke-dasharray:none"/><path id="path36_2_" stroke-miterlimit="10" d="m 821.2104,1482.469 0,-0.126 m 110.8937,-443.4468 0,221.7854 -110.8937,221.6614" style="fill:none;stroke:#d7dae0;stroke-width:65.79486536;stroke-linecap:round;stroke-linejoin:miter;stroke-miterlimit:0;stroke-opacity:1;stroke-dasharray:none"/><path id="path38_2_" stroke-miterlimit="10" d="m 932.1041,1926.0377 0,0 0,-221.7589 -110.8937,-221.9379" style="fill:none;stroke:#d7dae0;stroke-width:65.79486536;stroke-linecap:round;stroke-linejoin:miter;stroke-miterlimit:0;stroke-opacity:1;stroke-dasharray:none"/></g></g></g></svg>